<?xml version="1.0" encoding="UTF-8" standalone="no"?>
<!-- Created with Inkscape (http://www.inkscape.org/) -->

<svg
   width="210mm"
   height="297mm"
   viewBox="0 0 210 297"
   version="1.1"
   id="svg5"
   xml:space="preserve"
   inkscape:version="1.2.2 (732a01da63, 2022-12-09)"
   sodipodi:docname="negro_opaco.svg"
   xmlns:inkscape="http://www.inkscape.org/namespaces/inkscape"
   xmlns:sodipodi="http://sodipodi.sourceforge.net/DTD/sodipodi-0.dtd"
   xmlns="http://www.w3.org/2000/svg"
   xmlns:svg="http://www.w3.org/2000/svg"><sodipodi:namedview
     id="namedview7"
     pagecolor="#ffffff"
     bordercolor="#000000"
     borderopacity="0.25"
     inkscape:showpageshadow="2"
     inkscape:pageopacity="0.0"
     inkscape:pagecheckerboard="0"
     inkscape:deskcolor="#d1d1d1"
     inkscape:document-units="mm"
     showgrid="false"
     inkscape:zoom="0.46769781"
     inkscape:cx="25.657593"
     inkscape:cy="391.27829"
     inkscape:window-width="1366"
     inkscape:window-height="705"
     inkscape:window-x="-8"
     inkscape:window-y="-8"
     inkscape:window-maximized="1"
     inkscape:current-layer="layer1" /><defs
     id="defs2" /><g
     inkscape:label="Capa 1"
     inkscape:groupmode="layer"
     id="layer1"><g
       transform="matrix(0.03527778,0,0,-0.03527778,16.697073,197.24643)"
       fill="#000000"
       stroke="none"
       id="g14398"
       style="fill:#000000;fill-opacity:1"><path
         d="m 2679,5105 c -63,-20 -141,-92 -168,-154 -114,-266 -21,-481 209,-481 119,0 200,57 248,173 87,209 53,374 -92,449 -51,26 -138,32 -197,13 z"
         id="path14390"
         style="fill:#000000;fill-opacity:1" /><path
         d="m 4047,4770 c -66,-17 -116,-49 -199,-128 -151,-144 -286,-345 -451,-672 -118,-232 -180,-333 -249,-403 -156,-158 -258,-98 -258,152 0,64 6,96 37,182 63,179 46,311 -53,398 -54,47 -104,61 -175,50 -98,-16 -174,-92 -215,-215 -29,-90 -27,-329 5,-484 42,-208 17,-282 -118,-347 -151,-72 -355,-17 -533,144 -80,73 -84,75 -124,69 l -41,-5 -46,66 c -44,63 -46,68 -30,85 29,32 18,69 -62,213 -96,172 -106,187 -169,253 -85,88 -220,119 -311,71 -102,-54 -181,-173 -192,-292 -11,-121 57,-274 177,-401 130,-137 293,-247 658,-446 243,-133 296,-176 308,-251 6,-34 4,-37 -34,-52 -63,-25 -186,-37 -282,-26 -322,34 -387,34 -527,-2 -133,-33 -215,-92 -253,-181 -45,-104 -10,-252 77,-328 87,-76 187,-110 328,-110 152,0 244,33 465,170 169,105 270,130 357,91 34,-16 43,-26 48,-54 9,-49 -1,-90 -42,-169 -95,-182 -254,-289 -613,-413 -268,-92 -399,-161 -506,-265 -152,-148 -170,-287 -53,-401 58,-57 136,-89 231,-97 203,-15 538,130 722,314 39,38 121,137 183,221 119,161 187,234 262,283 61,41 85,37 89,-15 8,-89 -40,-239 -175,-555 -132,-308 -169,-409 -188,-517 -20,-113 -19,-190 5,-295 45,-205 129,-329 255,-378 80,-31 216,-34 290,-6 204,78 341,270 388,545 17,96 10,132 -28,149 -23,11 -25,17 -25,84 1,71 2,74 33,93 28,18 32,26 35,70 4,61 -10,158 -48,330 -49,217 -62,325 -58,470 2,105 7,136 21,158 22,34 39,41 74,33 36,-10 139,-116 203,-211 74,-110 194,-350 265,-530 52,-133 65,-156 110,-200 35,-36 66,-56 104,-68 59,-19 136,-22 175,-7 34,13 114,87 132,123 46,88 32,219 -37,346 -60,108 -106,167 -252,325 -184,197 -256,315 -257,414 0,47 4,58 30,82 80,75 277,62 547,-35 110,-40 133,-42 158,-15 23,26 28,25 102,-10 60,-28 62,-30 57,-60 -9,-40 12,-63 96,-105 113,-57 199,-78 298,-73 103,5 160,27 225,87 25,23 55,65 68,94 21,45 24,67 24,172 0,106 -3,126 -24,169 -44,88 -111,139 -228,173 -50,14 -113,16 -473,14 -409,-1 -591,6 -612,27 -6,6 -13,31 -15,57 -5,44 -4,48 39,89 77,73 257,136 496,171 208,30 298,65 379,145 59,58 83,110 83,183 0,98 -47,164 -152,212 -59,27 -164,36 -238,20 -54,-11 -154,-58 -280,-130 -161,-92 -311,-144 -425,-146 -82,-2 -95,5 -95,54 0,122 168,344 474,627 233,215 322,335 356,479 31,130 -26,268 -131,322 -46,23 -139,32 -192,19 z"
         id="path14392"
         style="fill:#000000;fill-opacity:1" /><path
         d="M 290,2676 C 178,2645 104,2587 60,2495 35,2443 30,2420 30,2358 c 0,-63 5,-84 30,-135 73,-146 216,-215 395,-191 164,22 256,105 285,257 30,158 -17,278 -137,348 -84,49 -217,66 -313,39 z"
         id="path14394"
         style="fill:#000000;fill-opacity:1" /><path
         d="m 4189,906 c -60,-21 -108,-67 -142,-136 -30,-60 -32,-72 -32,-165 0,-160 47,-268 151,-347 68,-52 133,-73 224,-72 117,2 209,55 256,147 22,42 30,163 15,224 -19,73 -75,183 -120,235 -90,101 -246,152 -352,114 z"
         id="path14396"
         style="fill:#000000;fill-opacity:1" /></g></g></svg>
